<svg width="1440" height="48" viewBox="0 0 1440 48" fill="none" xmlns="http://www.w3.org/2000/svg">
<path d="M1299.3 41.4865L1318.91 17.2084C1320.52 15.2188 1323.55 15.2274 1325.15 17.226L1344.53 41.5041C1346.62 44.1238 1344.76 47.9998 1341.4 47.9998L1302.41 47.9998C1299.05 47.9998 1297.19 44.1026 1299.3 41.4865Z" fill="#088B10"/>
<path d="M1359.49 41.4865L1379.1 17.2084C1380.71 15.2188 1383.74 15.2274 1385.34 17.226L1404.72 41.5041C1406.81 44.1238 1404.95 47.9998 1401.59 47.9998L1362.6 47.9998C1359.24 47.9998 1357.38 44.1026 1359.49 41.4865Z" fill="#088B10"/>
<path fill-rule="evenodd" clip-rule="evenodd" d="M1439.98 47.9989H1414.42L1439.98 16.3459V47.9989Z" fill="#088B10"/>
<path d="M1117.23 41.4865L1136.84 17.2084C1138.45 15.2188 1141.48 15.2274 1143.08 17.226L1162.46 41.5041C1164.55 44.1238 1162.68 47.9998 1159.33 47.9998L1120.34 47.9998C1116.98 47.9998 1115.12 44.1026 1117.23 41.4865Z" fill="#088B10"/>
<path d="M1239.11 41.4865L1258.72 17.2084C1260.33 15.2188 1263.36 15.2274 1264.96 17.226L1284.34 41.5041C1286.43 44.1238 1284.57 47.9998 1281.22 47.9998L1242.23 47.9998C1238.86 47.9998 1237 44.1026 1239.11 41.4865Z" fill="#088B10"/>
<path d="M1057.05 41.4865L1076.65 17.2084C1078.26 15.2188 1081.3 15.2274 1082.89 17.226L1102.28 41.5041C1104.37 44.1238 1102.5 47.9998 1099.15 47.9998L1060.16 47.9998C1056.8 47.9998 1054.93 44.1026 1057.05 41.4865Z" fill="#088B10"/>
<path d="M1177.42 41.4865L1197.03 17.2084C1198.64 15.2188 1201.67 15.2274 1203.27 17.226L1222.65 41.5041C1224.74 44.1238 1222.88 47.9998 1219.52 47.9998L1180.53 47.9998C1177.17 47.9998 1175.31 44.1026 1177.42 41.4865Z" fill="#088B10"/>
<path d="M995.351 41.4865L1014.96 17.2084C1016.57 15.2188 1019.6 15.2274 1021.2 17.226L1040.58 41.5041C1042.67 44.1238 1040.81 47.9998 1037.45 47.9998L998.463 47.9998C995.1 47.9998 993.238 44.1026 995.351 41.4865Z" fill="#088B10"/>
<path fill-rule="evenodd" clip-rule="evenodd" d="M960.015 15.98L985.578 47.9997H960.015V15.98Z" fill="#088B10"/>
<path d="M1269.21 6.51347L1288.82 30.7916C1290.43 32.7812 1293.46 32.7726 1295.06 30.774L1314.44 6.49587C1316.53 3.87617 1314.67 0.000232697 1311.31 0.000232697L1272.32 0.000232697C1268.96 0.000232697 1267.1 3.89744 1269.21 6.51347Z" fill="#DF5949"/>
<path d="M1329.4 6.51347L1349.01 30.7916C1350.61 32.7812 1353.65 32.7726 1355.24 30.774L1374.63 6.49587C1376.72 3.87617 1374.85 0.000232697 1371.5 0.000232697L1332.51 0.000232697C1329.15 0.000232697 1327.28 3.89744 1329.4 6.51347Z" fill="#DF5949"/>
<path d="M1389.59 6.51347L1409.19 30.7916C1410.8 32.7812 1413.84 32.7726 1415.43 30.774L1434.81 6.49587C1436.91 3.87617 1435.04 0.000232697 1431.69 0.000232697L1392.7 0.000232697C1389.34 0.000232697 1387.47 3.89744 1389.59 6.51347Z" fill="#DF5949"/>
<path d="M1087.14 6.51347L1106.75 30.7916C1108.36 32.7812 1111.39 32.7726 1112.99 30.774L1132.37 6.49587C1134.46 3.87617 1132.6 0.000232697 1129.24 0.000232697L1090.25 0.000232697C1086.89 0.000232697 1085.03 3.89744 1087.14 6.51347Z" fill="#DF5949"/>
<path d="M1209.02 6.51347L1228.63 30.7916C1230.23 32.7812 1233.27 32.7726 1234.87 30.774L1254.25 6.49587C1256.34 3.87617 1254.47 0.000232697 1251.12 0.000232697L1212.13 0.000232697C1208.77 0.000232697 1206.91 3.89744 1209.02 6.51347Z" fill="#DF5949"/>
<path d="M1026.95 6.51347L1046.56 30.7916C1048.16 32.7812 1051.2 32.7726 1052.79 30.774L1072.18 6.49587C1074.27 3.87617 1072.4 0.000232697 1069.05 0.000232697L1030.06 0.000232697C1026.7 0.000232697 1024.84 3.89744 1026.95 6.51347Z" fill="#DF5949"/>
<path d="M1147.33 6.51347L1166.94 30.7916C1168.54 32.7812 1171.58 32.7726 1173.17 30.774L1192.56 6.49587C1194.65 3.87617 1192.78 0.000232697 1189.43 0.000232697L1150.44 0.000232697C1147.08 0.000232697 1145.22 3.89744 1147.33 6.51347Z" fill="#DF5949"/>
<path d="M965.261 6.51347L984.869 30.7916C986.476 32.7812 989.511 32.7726 991.107 30.774L1010.49 6.49587C1012.58 3.87617 1010.72 0.000232697 1007.36 0.000232697L968.373 0.000232697C965.01 0.000232697 963.148 3.89744 965.261 6.51347Z" fill="#DF5949"/>
<path d="M819.301 41.4865L838.909 17.2084C840.516 15.2188 843.551 15.2274 845.147 17.226L864.529 41.5041C866.62 44.1238 864.755 47.9998 861.403 47.9998L822.413 47.9998C819.05 47.9998 817.188 44.1026 819.301 41.4865Z" fill="#088B10"/>
<path d="M879.492 41.4865L899.1 17.2084C900.707 15.2188 903.742 15.2274 905.338 17.226L924.72 41.5041C926.812 44.1238 924.947 47.9998 921.594 47.9998L882.604 47.9998C879.241 47.9998 877.379 44.1026 879.492 41.4865Z" fill="#088B10"/>
<path fill-rule="evenodd" clip-rule="evenodd" d="M959.983 47.9997H934.424L959.983 16.3528V47.9997Z" fill="#088B10"/>
<path d="M637.234 41.4865L656.842 17.2084C658.449 15.2188 661.485 15.2274 663.08 17.226L682.463 41.5041C684.554 44.1238 682.689 47.9998 679.337 47.9998L640.346 47.9998C636.984 47.9998 635.122 44.1026 637.234 41.4865Z" fill="#088B10"/>
<path d="M759.117 41.4865L778.725 17.2084C780.332 15.2188 783.367 15.2274 784.963 17.226L804.345 41.5041C806.437 44.1238 804.572 47.9998 801.219 47.9998L762.229 47.9998C758.866 47.9998 757.004 44.1026 759.117 41.4865Z" fill="#088B10"/>
<path d="M577.046 41.4865L596.654 17.2084C598.261 15.2188 601.296 15.2274 602.892 17.226L622.274 41.5041C624.366 44.1238 622.5 47.9998 619.148 47.9998L580.158 47.9998C576.795 47.9998 574.933 44.1026 577.046 41.4865Z" fill="#088B10"/>
<path d="M697.422 41.4865L717.03 17.2084C718.637 15.2188 721.672 15.2274 723.268 17.226L742.65 41.5041C744.742 44.1238 742.876 47.9998 739.524 47.9998L700.534 47.9998C697.171 47.9998 695.309 44.1026 697.422 41.4865Z" fill="#088B10"/>
<path d="M515.352 41.4865L534.959 17.2084C536.566 15.2188 539.602 15.2274 541.197 17.226L560.58 41.5041C562.671 44.1238 560.806 47.9998 557.454 47.9998L518.463 47.9998C515.101 47.9998 513.239 44.1026 515.352 41.4865Z" fill="#088B10"/>
<path fill-rule="evenodd" clip-rule="evenodd" d="M480.016 15.98L505.579 47.9997H480.016V15.98Z" fill="#088B10"/>
<path d="M789.211 6.51371L808.819 30.7919C810.426 32.7814 813.461 32.7728 815.057 30.7743L834.439 6.49611C836.531 3.87642 834.665 0.000476837 831.313 0.000476837L792.323 0.000476837C788.96 0.000476837 787.098 3.89769 789.211 6.51371Z" fill="#DF5949"/>
<path d="M849.398 6.51371L869.005 30.7919C870.612 32.7814 873.648 32.7728 875.243 30.7743L894.626 6.49611C896.717 3.87642 894.852 0.000476837 891.5 0.000476837L852.509 0.000476837C849.147 0.000476837 847.285 3.89769 849.398 6.51371Z" fill="#DF5949"/>
<path d="M909.586 6.51347L929.194 30.7916C930.801 32.7812 933.836 32.7726 935.432 30.774L954.814 6.49587C956.906 3.87617 955.04 0.000232697 951.688 0.000232697L912.698 0.000232697C909.335 0.000232697 907.473 3.89744 909.586 6.51347Z" fill="#DF5949"/>
<path d="M607.141 6.51371L626.749 30.7919C628.355 32.7814 631.391 32.7728 632.986 30.7743L652.369 6.49611C654.46 3.87642 652.595 0.000476837 649.243 0.000476837L610.253 0.000476837C606.89 0.000476837 605.028 3.89769 607.141 6.51371Z" fill="#DF5949"/>
<path d="M729.02 6.51371L748.627 30.7919C750.234 32.7814 753.27 32.7728 754.865 30.7743L774.248 6.49611C776.339 3.87642 774.474 0.000476837 771.122 0.000476837L732.131 0.000476837C728.769 0.000476837 726.907 3.89769 729.02 6.51371Z" fill="#DF5949"/>
<path d="M546.949 6.51371L566.557 30.7919C568.164 32.7814 571.199 32.7728 572.795 30.7743L592.177 6.49611C594.269 3.87642 592.404 0.000476837 589.051 0.000476837L550.061 0.000476837C546.698 0.000476837 544.836 3.89769 546.949 6.51371Z" fill="#DF5949"/>
<path d="M667.328 6.51371L686.936 30.7919C688.543 32.7814 691.578 32.7728 693.174 30.7743L712.556 6.49611C714.648 3.87642 712.783 0.000476837 709.43 0.000476837L670.44 0.000476837C667.077 0.000476837 665.215 3.89769 667.328 6.51371Z" fill="#DF5949"/>
<path d="M485.262 6.51371L504.87 30.7919C506.476 32.7814 509.512 32.7728 511.107 30.7743L530.49 6.49611C532.581 3.87642 530.716 0.000476837 527.364 0.000476837L488.374 0.000476837C485.011 0.000476837 483.149 3.89769 485.262 6.51371Z" fill="#DF5949"/>
<path d="M339.298 41.4865L358.906 17.2084C360.513 15.2188 363.548 15.2274 365.144 17.226L384.526 41.5041C386.618 44.1238 384.752 47.9998 381.4 47.9998L342.41 47.9998C339.047 47.9998 337.185 44.1026 339.298 41.4865Z" fill="#088B10"/>
<path d="M399.491 41.4865L419.099 17.2084C420.706 15.2188 423.741 15.2274 425.337 17.226L444.719 41.5041C446.811 44.1238 444.946 47.9998 441.593 47.9998L402.603 47.9998C399.24 47.9998 397.378 44.1026 399.491 41.4865Z" fill="#088B10"/>
<path fill-rule="evenodd" clip-rule="evenodd" d="M479.98 47.9997H454.421L479.98 16.3528V47.9997Z" fill="#088B10"/>
<path d="M157.232 41.4865L176.84 17.2084C178.447 15.2188 181.483 15.2274 183.078 17.226L202.461 41.5041C204.552 44.1238 202.687 47.9998 199.335 47.9998L160.344 47.9998C156.982 47.9998 155.12 44.1026 157.232 41.4865Z" fill="#088B10"/>
<path d="M279.116 41.4865L298.724 17.2084C300.331 15.2188 303.366 15.2274 304.962 17.226L324.344 41.5041C326.436 44.1238 324.571 47.9998 321.218 47.9998L282.228 47.9998C278.865 47.9998 277.003 44.1026 279.116 41.4865Z" fill="#088B10"/>
<path d="M97.045 41.4865L116.653 17.2084C118.26 15.2188 121.295 15.2274 122.891 17.226L142.273 41.5041C144.365 44.1238 142.499 47.9998 139.147 47.9998L100.157 47.9998C96.7942 47.9998 94.9322 44.1026 97.045 41.4865Z" fill="#088B10"/>
<path d="M217.419 41.4865L237.027 17.2084C238.634 15.2188 241.669 15.2274 243.265 17.226L262.647 41.5041C264.739 44.1238 262.873 47.9998 259.521 47.9998L220.531 47.9998C217.168 47.9998 215.306 44.1026 217.419 41.4865Z" fill="#088B10"/>
<path d="M35.3536 41.4865L54.9615 17.2084C56.5683 15.2188 59.6037 15.2274 61.1993 17.226L80.5818 41.5041C82.6732 44.1238 80.8079 47.9998 77.4558 47.9998L38.4654 47.9998C35.1028 47.9998 33.2408 44.1026 35.3536 41.4865Z" fill="#088B10"/>
<path fill-rule="evenodd" clip-rule="evenodd" d="M0.0132298 15.98L25.5762 47.9997H0.0132298L0.0132298 15.98Z" fill="#088B10"/>
<path d="M309.209 6.51347L328.817 30.7916C330.424 32.7812 333.459 32.7726 335.055 30.774L354.437 6.49587C356.529 3.87617 354.663 0.000232697 351.311 0.000232697L312.321 0.000232697C308.958 0.000232697 307.096 3.89744 309.209 6.51347Z" fill="#DF5949"/>
<path d="M369.396 6.51347L389.003 30.7916C390.61 32.7812 393.646 32.7726 395.241 30.774L414.624 6.49587C416.715 3.87617 414.85 0.000232697 411.498 0.000232697L372.507 0.000232697C369.145 0.000232697 367.283 3.89744 369.396 6.51347Z" fill="#DF5949"/>
<path d="M429.584 6.51347L449.192 30.7916C450.799 32.7812 453.834 32.7726 455.43 30.774L474.812 6.49587C476.904 3.87617 475.038 0.000232697 471.686 0.000232697L432.696 0.000232697C429.333 0.000232697 427.471 3.89744 429.584 6.51347Z" fill="#DF5949"/>
<path d="M127.139 6.51347L146.747 30.7916C148.353 32.7812 151.389 32.7726 152.984 30.774L172.367 6.49587C174.458 3.87617 172.593 0.000232697 169.241 0.000232697L130.251 0.000232697C126.888 0.000232697 125.026 3.89744 127.139 6.51347Z" fill="#DF5949"/>
<path d="M249.018 6.51347L268.626 30.7916C270.232 32.7812 273.268 32.7726 274.863 30.774L294.246 6.49587C296.337 3.87617 294.472 0.000232697 291.12 0.000232697L252.13 0.000232697C248.767 0.000232697 246.905 3.89744 249.018 6.51347Z" fill="#DF5949"/>
<path d="M66.9473 6.51347L86.5552 30.7916C88.162 32.7812 91.1975 32.7726 92.793 30.774L112.176 6.49587C114.267 3.87617 112.402 0.000232697 109.05 0.000232697L70.0592 0.000232697C66.6965 0.000232697 64.8345 3.89744 66.9473 6.51347Z" fill="#DF5949"/>
<path d="M187.326 6.51347L206.934 30.7916C208.541 32.7812 211.576 32.7726 213.172 30.774L232.554 6.49587C234.646 3.87617 232.781 0.000232697 229.428 0.000232697L190.438 0.000232697C187.075 0.000232697 185.213 3.89744 187.326 6.51347Z" fill="#DF5949"/>
<path d="M5.25886 6.51347L24.8667 30.7916C26.4735 32.7812 29.509 32.7726 31.1046 30.774L50.4871 6.49587C52.5785 3.87617 50.7132 0.000232697 47.3611 0.000232697L8.37071 0.000232697C5.00805 0.000232697 3.14606 3.89744 5.25886 6.51347Z" fill="#DF5949"/>
</svg>
