<svg width="1440" height="48" viewBox="0 0 1440 48" fill="none" xmlns="http://www.w3.org/2000/svg">
<path d="M140.699 6.51323L121.091 30.7914C119.484 32.7809 116.449 32.7724 114.853 30.7738L95.471 6.49562C93.3795 3.87593 95.2448 -1.14441e-05 98.5969 -1.14441e-05L137.587 -1.14441e-05C140.95 -1.14441e-05 142.812 3.8972 140.699 6.51323Z" fill="#088B10"/>
<path d="M80.5077 6.51323L60.8999 30.7914C59.2931 32.7809 56.2576 32.7724 54.662 30.7738L35.2795 6.49562C33.1881 3.87593 35.0534 -1.14441e-05 38.4055 -1.14441e-05L77.3959 -1.14441e-05C80.7585 -1.14441e-05 82.6205 3.8972 80.5077 6.51323Z" fill="#088B10"/>
<path fill-rule="evenodd" clip-rule="evenodd" d="M0.015625 0.000907898L25.5796 0.000907898L0.015625 31.6539L0.015625 0.000907898Z" fill="#088B10"/>
<path d="M322.769 6.51323L303.162 30.7914C301.555 32.7809 298.519 32.7724 296.924 30.7738L277.541 6.49562C275.45 3.87593 277.315 -1.14441e-05 280.667 -1.14441e-05L319.658 -1.14441e-05C323.02 -1.14441e-05 324.882 3.8972 322.769 6.51323Z" fill="#088B10"/>
<path d="M200.887 6.51323L181.279 30.7914C179.672 32.7809 176.637 32.7724 175.041 30.7738L155.658 6.49562C153.567 3.87593 155.432 -1.14441e-05 158.784 -1.14441e-05L197.775 -1.14441e-05C201.137 -1.14441e-05 202.999 3.8972 200.887 6.51323Z" fill="#088B10"/>
<path d="M382.953 6.51323L363.345 30.7914C361.738 32.7809 358.703 32.7724 357.107 30.7738L337.725 6.49562C335.633 3.87593 337.499 -1.14441e-05 340.851 -1.14441e-05L379.841 -1.14441e-05C383.204 -1.14441e-05 385.066 3.8972 382.953 6.51323Z" fill="#088B10"/>
<path d="M262.578 6.51323L242.97 30.7914C241.363 32.7809 238.328 32.7724 236.732 30.7738L217.35 6.49562C215.258 3.87593 217.124 -1.14441e-05 220.476 -1.14441e-05L259.466 -1.14441e-05C262.829 -1.14441e-05 264.691 3.8972 262.578 6.51323Z" fill="#088B10"/>
<path d="M444.649 6.51323L425.041 30.7914C423.435 32.7809 420.399 32.7724 418.804 30.7738L399.421 6.49562C397.33 3.87593 399.195 -1.14441e-05 402.547 -1.14441e-05L441.537 -1.14441e-05C444.9 -1.14441e-05 446.762 3.8972 444.649 6.51323Z" fill="#088B10"/>
<path fill-rule="evenodd" clip-rule="evenodd" d="M479.984 32.0198L454.421 0.000146866H479.984V32.0198Z" fill="#088B10"/>
<path d="M170.789 41.4863L151.181 17.2081C149.574 15.2186 146.539 15.2272 144.943 17.2257L125.561 41.5039C123.469 44.1236 125.335 47.9995 128.687 47.9995L167.677 47.9995C171.04 47.9995 172.902 44.1023 170.789 41.4863Z" fill="#D99C3A"/>
<path d="M110.602 41.4863L90.9946 17.2081C89.3878 15.2186 86.3523 15.2272 84.7568 17.2257L65.3743 41.5039C63.2828 44.1236 65.1481 47.9995 68.5003 47.9995L107.491 47.9995C110.853 47.9995 112.715 44.1023 110.602 41.4863Z" fill="#D99C3A"/>
<path d="M50.414 41.4863L30.8061 17.2081C29.1993 15.2186 26.1639 15.2272 24.5683 17.2257L5.1858 41.5039C3.09436 44.1236 4.95963 47.9995 8.31178 47.9995L47.3021 47.9995C50.6648 47.9995 52.5268 44.1023 50.414 41.4863Z" fill="#D99C3A"/>
<path d="M352.859 41.4863L333.251 17.2081C331.645 15.2186 328.609 15.2272 327.014 17.2257L307.631 41.5039C305.54 44.1236 307.405 47.9995 310.757 47.9995L349.747 47.9995C353.11 47.9995 354.972 44.1023 352.859 41.4863Z" fill="#D99C3A"/>
<path d="M230.98 41.4863L211.373 17.2081C209.766 15.2186 206.73 15.2272 205.135 17.2257L185.752 41.5039C183.661 44.1236 185.526 47.9995 188.878 47.9995L227.869 47.9995C231.231 47.9995 233.093 44.1023 230.98 41.4863Z" fill="#D99C3A"/>
<path d="M413.051 41.4863L393.443 17.2081C391.836 15.2186 388.801 15.2272 387.205 17.2257L367.823 41.5039C365.731 44.1236 367.596 47.9995 370.949 47.9995L409.939 47.9995C413.302 47.9995 415.164 44.1023 413.051 41.4863Z" fill="#D99C3A"/>
<path d="M292.672 41.4863L273.064 17.2081C271.457 15.2186 268.422 15.2272 266.826 17.2257L247.444 41.5039C245.352 44.1236 247.217 47.9995 250.57 47.9995L289.56 47.9995C292.923 47.9995 294.785 44.1023 292.672 41.4863Z" fill="#D99C3A"/>
<path d="M474.739 41.4863L455.131 17.2081C453.524 15.2186 450.489 15.2272 448.893 17.2257L429.511 41.5039C427.42 44.1236 429.285 47.9995 432.637 47.9995L471.627 47.9995C474.99 47.9995 476.852 44.1023 474.739 41.4863Z" fill="#D99C3A"/>
<path d="M620.699 6.51323L601.091 30.7914C599.484 32.7809 596.449 32.7724 594.853 30.7738L575.471 6.49562C573.38 3.87593 575.245 -1.14441e-05 578.597 -1.14441e-05L617.587 -1.14441e-05C620.95 -1.14441e-05 622.812 3.8972 620.699 6.51323Z" fill="#088B10"/>
<path d="M560.508 6.51323L540.9 30.7914C539.293 32.7809 536.258 32.7724 534.662 30.7738L515.28 6.49562C513.188 3.87593 515.053 -1.14441e-05 518.406 -1.14441e-05L557.396 -1.14441e-05C560.759 -1.14441e-05 562.621 3.8972 560.508 6.51323Z" fill="#088B10"/>
<path fill-rule="evenodd" clip-rule="evenodd" d="M480.017 0.000108719L505.576 0.000108719L480.017 31.647V0.000108719Z" fill="#088B10"/>
<path d="M802.766 6.51323L783.158 30.7914C781.551 32.7809 778.515 32.7724 776.92 30.7738L757.537 6.49562C755.446 3.87593 757.311 -1.14441e-05 760.663 -1.14441e-05L799.654 -1.14441e-05C803.016 -1.14441e-05 804.878 3.8972 802.766 6.51323Z" fill="#088B10"/>
<path d="M680.883 6.51323L661.275 30.7914C659.668 32.7809 656.633 32.7724 655.037 30.7738L635.655 6.49562C633.563 3.87593 635.428 -1.14441e-05 638.781 -1.14441e-05L677.771 -1.14441e-05C681.134 -1.14441e-05 682.996 3.8972 680.883 6.51323Z" fill="#088B10"/>
<path d="M862.954 6.51323L843.346 30.7914C841.739 32.7809 838.704 32.7724 837.108 30.7738L817.726 6.49562C815.634 3.87593 817.5 -1.14441e-05 820.852 -1.14441e-05L859.842 -1.14441e-05C863.205 -1.14441e-05 865.067 3.8972 862.954 6.51323Z" fill="#088B10"/>
<path d="M742.578 6.51323L722.97 30.7914C721.363 32.7809 718.328 32.7724 716.732 30.7738L697.35 6.49562C695.258 3.87593 697.124 -1.14441e-05 700.476 -1.14441e-05L739.466 -1.14441e-05C742.829 -1.14441e-05 744.691 3.8972 742.578 6.51323Z" fill="#088B10"/>
<path d="M924.648 6.51323L905.041 30.7914C903.434 32.7809 900.398 32.7724 898.803 30.7738L879.42 6.49562C877.329 3.87593 879.194 -1.14441e-05 882.546 -1.14441e-05L921.537 -1.14441e-05C924.899 -1.14441e-05 926.761 3.8972 924.648 6.51323Z" fill="#088B10"/>
<path fill-rule="evenodd" clip-rule="evenodd" d="M959.984 32.0198L934.421 0.000144958H959.984V32.0198Z" fill="#088B10"/>
<path d="M650.789 41.486L631.181 17.2079C629.574 15.2183 626.539 15.2269 624.943 17.2255L605.561 41.5036C603.469 44.1233 605.335 47.9993 608.687 47.9993L647.677 47.9993C651.04 47.9993 652.902 44.1021 650.789 41.486Z" fill="#D99C3A"/>
<path d="M590.602 41.486L570.995 17.2079C569.388 15.2183 566.352 15.2269 564.757 17.2255L545.374 41.5036C543.283 44.1233 545.148 47.9993 548.5 47.9993L587.491 47.9993C590.853 47.9993 592.715 44.1021 590.602 41.486Z" fill="#D99C3A"/>
<path d="M530.414 41.4863L510.806 17.2081C509.199 15.2186 506.164 15.2272 504.568 17.2257L485.186 41.5039C483.094 44.1236 484.96 47.9995 488.312 47.9995L527.302 47.9995C530.665 47.9995 532.527 44.1023 530.414 41.4863Z" fill="#D99C3A"/>
<path d="M832.859 41.486L813.251 17.2079C811.645 15.2183 808.609 15.2269 807.014 17.2255L787.631 41.5036C785.54 44.1233 787.405 47.9993 790.757 47.9993L829.747 47.9993C833.11 47.9993 834.972 44.1021 832.859 41.486Z" fill="#D99C3A"/>
<path d="M710.98 41.486L691.373 17.2079C689.766 15.2183 686.73 15.2269 685.135 17.2255L665.752 41.5036C663.661 44.1233 665.526 47.9993 668.878 47.9993L707.869 47.9993C711.231 47.9993 713.093 44.1021 710.98 41.486Z" fill="#D99C3A"/>
<path d="M893.051 41.486L873.443 17.2079C871.836 15.2183 868.801 15.2269 867.205 17.2255L847.823 41.5036C845.731 44.1233 847.596 47.9993 850.949 47.9993L889.939 47.9993C893.302 47.9993 895.164 44.1021 893.051 41.486Z" fill="#D99C3A"/>
<path d="M772.672 41.486L753.064 17.2079C751.457 15.2183 748.422 15.2269 746.826 17.2255L727.444 41.5036C725.352 44.1233 727.217 47.9993 730.57 47.9993L769.56 47.9993C772.923 47.9993 774.785 44.1021 772.672 41.486Z" fill="#D99C3A"/>
<path d="M954.738 41.486L935.13 17.2079C933.524 15.2183 930.488 15.2269 928.893 17.2255L909.51 41.5036C907.419 44.1233 909.284 47.9993 912.636 47.9993L951.626 47.9993C954.989 47.9993 956.851 44.1021 954.738 41.486Z" fill="#D99C3A"/>
<path d="M1100.7 6.51323L1081.09 30.7914C1079.49 32.7809 1076.45 32.7724 1074.86 30.7738L1055.47 6.49562C1053.38 3.87593 1055.25 -1.14441e-05 1058.6 -1.14441e-05L1097.59 -1.14441e-05C1100.95 -1.14441e-05 1102.81 3.8972 1100.7 6.51323Z" fill="#088B10"/>
<path d="M1040.51 6.51323L1020.9 30.7914C1019.29 32.7809 1016.26 32.7724 1014.66 30.7738L995.281 6.49562C993.189 3.87593 995.054 -1.14441e-05 998.407 -1.14441e-05L1037.4 -1.14441e-05C1040.76 -1.14441e-05 1042.62 3.8972 1040.51 6.51323Z" fill="#088B10"/>
<path fill-rule="evenodd" clip-rule="evenodd" d="M960.02 0.000106812L985.579 0.000106812L960.02 31.647V0.000106812Z" fill="#088B10"/>
<path d="M1282.77 6.51323L1263.16 30.7914C1261.55 32.7809 1258.52 32.7724 1256.92 30.7738L1237.54 6.49562C1235.45 3.87593 1237.31 -1.14441e-05 1240.67 -1.14441e-05L1279.66 -1.14441e-05C1283.02 -1.14441e-05 1284.88 3.8972 1282.77 6.51323Z" fill="#088B10"/>
<path d="M1160.88 6.51323L1141.28 30.7914C1139.67 32.7809 1136.63 32.7724 1135.04 30.7738L1115.66 6.49562C1113.56 3.87593 1115.43 -1.14441e-05 1118.78 -1.14441e-05L1157.77 -1.14441e-05C1161.13 -1.14441e-05 1163 3.8972 1160.88 6.51323Z" fill="#088B10"/>
<path d="M1342.96 6.51323L1323.35 30.7914C1321.74 32.7809 1318.7 32.7724 1317.11 30.7738L1297.73 6.49562C1295.64 3.87593 1297.5 -1.14441e-05 1300.85 -1.14441e-05L1339.84 -1.14441e-05C1343.21 -1.14441e-05 1345.07 3.8972 1342.96 6.51323Z" fill="#088B10"/>
<path d="M1222.58 6.51323L1202.97 30.7914C1201.37 32.7809 1198.33 32.7724 1196.74 30.7738L1177.35 6.49562C1175.26 3.87593 1177.13 -1.14441e-05 1180.48 -1.14441e-05L1219.47 -1.14441e-05C1222.83 -1.14441e-05 1224.69 3.8972 1222.58 6.51323Z" fill="#088B10"/>
<path d="M1404.65 6.51323L1385.04 30.7914C1383.43 32.7809 1380.4 32.7724 1378.8 30.7738L1359.42 6.49562C1357.33 3.87593 1359.19 -1.14441e-05 1362.54 -1.14441e-05L1401.53 -1.14441e-05C1404.9 -1.14441e-05 1406.76 3.8972 1404.65 6.51323Z" fill="#088B10"/>
<path fill-rule="evenodd" clip-rule="evenodd" d="M1439.99 32.0198L1414.42 0.000144958H1439.99V32.0198Z" fill="#088B10"/>
<path d="M1130.79 41.4863L1111.18 17.2081C1109.58 15.2186 1106.54 15.2272 1104.95 17.2257L1085.56 41.5039C1083.47 44.1236 1085.34 47.9995 1088.69 47.9995L1127.68 47.9995C1131.04 47.9995 1132.9 44.1023 1130.79 41.4863Z" fill="#D99C3A"/>
<path d="M1070.6 41.4863L1051 17.2081C1049.39 15.2186 1046.35 15.2272 1044.76 17.2257L1025.38 41.5039C1023.28 44.1236 1025.15 47.9995 1028.5 47.9995L1067.49 47.9995C1070.86 47.9995 1072.72 44.1023 1070.6 41.4863Z" fill="#D99C3A"/>
<path d="M1010.42 41.4863L990.808 17.2081C989.201 15.2186 986.166 15.2272 984.57 17.2257L965.188 41.5039C963.096 44.1236 964.962 47.9995 968.314 47.9995L1007.3 47.9995C1010.67 47.9995 1012.53 44.1023 1010.42 41.4863Z" fill="#D99C3A"/>
<path d="M1312.86 41.4863L1293.25 17.2081C1291.65 15.2186 1288.61 15.2272 1287.02 17.2257L1267.63 41.5039C1265.54 44.1236 1267.41 47.9995 1270.76 47.9995L1309.75 47.9995C1313.11 47.9995 1314.97 44.1023 1312.86 41.4863Z" fill="#D99C3A"/>
<path d="M1190.98 41.4863L1171.37 17.2081C1169.77 15.2186 1166.73 15.2272 1165.14 17.2257L1145.75 41.5039C1143.66 44.1236 1145.53 47.9995 1148.88 47.9995L1187.87 47.9995C1191.23 47.9995 1193.1 44.1023 1190.98 41.4863Z" fill="#D99C3A"/>
<path d="M1373.05 41.4863L1353.44 17.2081C1351.84 15.2186 1348.8 15.2272 1347.21 17.2257L1327.82 41.5039C1325.73 44.1236 1327.6 47.9995 1330.95 47.9995L1369.94 47.9995C1373.3 47.9995 1375.17 44.1023 1373.05 41.4863Z" fill="#D99C3A"/>
<path d="M1252.67 41.4863L1233.07 17.2081C1231.46 15.2186 1228.42 15.2272 1226.83 17.2257L1207.45 41.5039C1205.35 44.1236 1207.22 47.9995 1210.57 47.9995L1249.56 47.9995C1252.92 47.9995 1254.79 44.1023 1252.67 41.4863Z" fill="#D99C3A"/>
<path d="M1434.74 41.4863L1415.13 17.2081C1413.53 15.2186 1410.49 15.2272 1408.9 17.2257L1389.51 41.5039C1387.42 44.1236 1389.29 47.9995 1392.64 47.9995L1431.63 47.9995C1434.99 47.9995 1436.85 44.1023 1434.74 41.4863Z" fill="#D99C3A"/>
</svg>
